<svg width="24" height="25" viewBox="0 0 24 25" fill="none" xmlns="http://www.w3.org/2000/svg">
<path d="M5 1.66663H2C1.73478 1.66663 1.48043 1.77198 1.29289 1.95952C1.10536 2.14705 1 2.40141 1 2.66663V22.6666C1 22.9318 1.10536 23.1862 1.29289 23.3737C1.48043 23.5613 1.73478 23.6666 2 23.6666H5V1.66663Z" fill="white"/>
<path d="M7 23.6666H17V1.66663H7V23.6666ZM12 19.6666C11.7348 19.6666 11.4804 19.5613 11.2929 19.3737C11.1054 19.1862 11 18.9318 11 18.6666C11 18.4014 11.1054 18.1471 11.2929 17.9595C11.4804 17.772 11.7348 17.6666 12 17.6666C12.2652 17.6666 12.5196 17.772 12.7071 17.9595C12.8946 18.1471 13 18.4014 13 18.6666C13 18.9318 12.8946 19.1862 12.7071 19.3737C12.5196 19.5613 12.2652 19.6666 12 19.6666ZM12 5.66663C12.2652 5.66663 12.5196 5.77198 12.7071 5.95952C12.8946 6.14705 13 6.40141 13 6.66663C13 6.93184 12.8946 7.1862 12.7071 7.37373C12.5196 7.56127 12.2652 7.66663 12 7.66663C11.7348 7.66663 11.4804 7.56127 11.2929 7.37373C11.1054 7.1862 11 6.93184 11 6.66663C11 6.40141 11.1054 6.14705 11.2929 5.95952C11.4804 5.77198 11.7348 5.66663 12 5.66663ZM12 11.6666C12.2652 11.6666 12.5196 11.772 12.7071 11.9595C12.8946 12.1471 13 12.4014 13 12.6666C13 12.9318 12.8946 13.1862 12.7071 13.3737C12.5196 13.5613 12.2652 13.6666 12 13.6666C11.7348 13.6666 11.4804 13.5613 11.2929 13.3737C11.1054 13.1862 11 12.9318 11 12.6666C11 12.4014 11.1054 12.1471 11.2929 11.9595C11.4804 11.772 11.7348 11.6666 12 11.6666Z" fill="#8C30F5"/>
<path d="M22 1.66663H19V23.6666H22C22.2652 23.6666 22.5196 23.5613 22.7071 23.3737C22.8946 23.1862 23 22.9318 23 22.6666V2.66663C23 2.40141 22.8946 2.14705 22.7071 1.95952C22.5196 1.77198 22.2652 1.66663 22 1.66663Z" fill="#2EC5CE"/>
</svg>
