<svg width="24" height="25" viewBox="0 0 24 25" fill="none" xmlns="http://www.w3.org/2000/svg">
<g clip-path="url(#clip0)">
<path d="M18 10.3333H24L21 6.33331L18 10.3333ZM18 14.3333H24L21 18.3333L18 14.3333Z" fill="white"/>
<path d="M1 0.333313H7V24.3333H1C0.734784 24.3333 0.480429 24.228 0.292892 24.0404C0.105356 23.8529 0 23.5985 0 23.3333V1.33331C0 1.0681 0.105356 0.813742 0.292892 0.626205C0.480429 0.438669 0.734784 0.333313 1 0.333313Z" fill="#8C30F5"/>
<path d="M9 0.333313H15C15.2652 0.333313 15.5196 0.438669 15.7071 0.626205C15.8946 0.813742 16 1.0681 16 1.33331V23.3333C16 23.5985 15.8946 23.8529 15.7071 24.0404C15.5196 24.228 15.2652 24.3333 15 24.3333H9V0.333313Z" fill="#2EC5CE"/>
</g>
<defs>
<clipPath id="clip0">
<rect width="24" height="24" fill="white" transform="translate(0 0.333313)"/>
</clipPath>
</defs>
</svg>
