<svg width="884" height="180" viewBox="0 0 884 180" fill="none" xmlns="http://www.w3.org/2000/svg">
<mask id="mask0" mask-type="alpha" maskUnits="userSpaceOnUse" x="0" y="0" width="884" height="180">
<rect width="884" height="180" rx="16" fill="#C4C4C4"/>
</mask>
<g mask="url(#mask0)">
<rect width="884" height="180" rx="16" fill="#8C30F5"/>
<path opacity="0.15" d="M581.598 129.197C487.77 76.2979 358.463 138.113 255.986 96.2501C202.666 74.4687 191.853 54.8138 153.592 22.3215C129.051 1.48083 126.711 -2.1473 103.419 -17.0535C80.1262 -31.9596 37.8867 -49.1963 37.8867 -49.1963V-103.839H1140.67V260.179H877.516C877.516 260.179 736.964 261.897 669.657 216.786C628.719 189.349 629.629 156.276 581.598 129.197Z" fill="white"/>
<path opacity="0.15" d="M619.483 111.696C525.655 58.7978 396.348 134.274 293.87 92.4107C240.551 70.6293 212.638 -6.56254 197.108 -29.375C188.599 -41.875 175.606 -53.125 154.501 -61.875C133.397 -70.625 75.7715 -66.6964 75.7715 -66.6964V-121.339H1178.55V219.821H931.784C931.784 219.821 758.738 224.196 702.422 192.857C653.273 165.506 667.514 138.776 619.483 111.696Z" fill="white"/>
</g>
</svg>
