<svg width="22" height="24" viewBox="0 0 22 24" fill="none" xmlns="http://www.w3.org/2000/svg">
<path d="M8.72455 10.068C8.00798 10.068 7.44226 10.668 7.44226 11.4C7.44226 12.132 8.02055 12.732 8.72455 12.732C9.44112 12.732 10.0068 12.132 10.0068 11.4C10.0194 10.668 9.44112 10.068 8.72455 10.068ZM13.3131 10.068C12.5965 10.068 12.0308 10.668 12.0308 11.4C12.0308 12.132 12.6091 12.732 13.3131 12.732C14.0297 12.732 14.5954 12.132 14.5954 11.4C14.5954 10.668 14.0297 10.068 13.3131 10.068Z" fill="white"/>
<path d="M19.4229 0H2.57714C1.15657 0 0 1.104 0 2.472V18.696C0 20.064 1.15657 21.168 2.57714 21.168H16.8331L16.1669 18.948L17.776 20.376L19.2971 21.72L22 24V2.472C22 1.104 20.8434 0 19.4229 0ZM14.5703 15.672C14.5703 15.672 14.1177 15.156 13.7406 14.7C15.3874 14.256 16.016 13.272 16.016 13.272C15.5006 13.596 15.0103 13.824 14.5703 13.98C13.9417 14.232 13.3383 14.4 12.7474 14.496C11.5406 14.712 10.4343 14.652 9.49143 14.484C8.77486 14.352 8.15886 14.16 7.64343 13.968C7.35429 13.86 7.04 13.728 6.72571 13.56C6.688 13.536 6.65029 13.524 6.61257 13.5C6.58743 13.488 6.57486 13.476 6.56229 13.464C6.336 13.344 6.21029 13.26 6.21029 13.26C6.21029 13.26 6.81371 14.22 8.41029 14.676C8.03314 15.132 7.568 15.672 7.568 15.672C4.78971 15.588 3.73371 13.848 3.73371 13.848C3.73371 9.984 5.544 6.852 5.544 6.852C7.35429 5.556 9.07657 5.592 9.07657 5.592L9.20229 5.736C6.93943 6.36 5.896 7.308 5.896 7.308C5.896 7.308 6.17257 7.164 6.63771 6.96C7.98286 6.396 9.05143 6.24 9.49143 6.204C9.56686 6.192 9.62971 6.18 9.70514 6.18C10.472 6.084 11.3394 6.06 12.2446 6.156C13.4389 6.288 14.7211 6.624 16.0286 7.308C16.0286 7.308 15.0354 6.408 12.8983 5.784L13.0743 5.592C13.0743 5.592 14.7966 5.556 16.6069 6.852C16.6069 6.852 18.4171 9.984 18.4171 13.848C18.4171 13.848 17.3486 15.588 14.5703 15.672Z" fill="white"/>
</svg>
