<?xml version="1.0" encoding="utf-8"?>
<!-- Generator: Adobe Illustrator 24.1.0, SVG Export Plug-In . SVG Version: 6.00 Build 0)  -->
<svg version="1.1" id="Layer_1" xmlns="http://www.w3.org/2000/svg" xmlns:xlink="http://www.w3.org/1999/xlink" x="0px" y="0px"
	 viewBox="0 0 1024 720" style="enable-background:new 0 0 1024 720;" xml:space="preserve">
    <style type="text/css">
	.st0{fill:#000F28;}
</style>
    <g>
        <g>
            <path class="st0" d="M139.75,617.81H87.68V513h52.08l13.1,13.1v30.3l-8.19,8.19l8.19,8.19v31.93L139.75,617.81z M133.86,531.18
			h-27.18v24.4h27.18V531.18z M133.86,573.59h-27.18v26.04h27.18V573.59z"/>
            <path class="st0" d="M188.39,617.81h-19.16V512.84l15.39-6.06l3.77-0.33V617.81z"/>
            <path class="st0" d="M256.84,617.81h-38.97l-13.1-13.1v-57.16l13.1-13.1h38.97l13.1,13.1v57.16L256.84,617.81z M250.94,552.63
			h-27.18v47h27.18V552.63z"/>
            <path class="st0" d="M335.93,617.81h-36.52l-13.1-13.1v-57.16l13.1-13.1h36.52l13.1,13.1v5.08h-43.72v47h43.72v5.08L335.93,617.81
			z"/>
            <path class="st0" d="M419.28,617.64l-20.96-39.96l-18.18,18.17v21.95h-18.83V512.67l15.39-5.9l3.44-0.33v66l36.52-37.99h23.09
			l-27.35,28.66l27.35,54.54H419.28z"/>
            <path class="st0" d="M540.96,577.36h-33.08v40.45h-19V513h52.08l13.1,13.1v38.15L540.96,577.36z M535.06,531.18h-27.18v28h27.18
			V531.18z"/>
            <path class="st0" d="M630.7,617.81h-4.26l-14.74-9.5l-9.5,9.5h-23.58l-13.1-13.1v-22.6l14.74-14.74h31.44v-14.74h-44.54v-5.08
			l13.1-13.1h37.34l13.1,13.1V617.81z M611.7,584.73h-27.19v15.72h27.19V584.73z"/>
            <path class="st0" d="M700.29,552.63h-34.23v65.18h-18.83l-0.16-83.35h4.26l14.74,9.5l9.5-9.5h15.23l9.5,9.5V552.63z"/>
            <path class="st0" d="M732.06,552.63v47h17.69v18.18h-23.58l-13.1-13.1v-52.08h-9.83v-4.26l9.83-13.92v-20.64l14.9-7.37h4.1v28
			h18.02v18.18H732.06z"/>
            <path class="st0" d="M760.72,526.1v-19.65h18.99v19.65H760.72z M779.71,617.81h-18.99v-83.35h18.99V617.81z"/>
            <path class="st0" d="M848.16,617.81h-38.97l-13.1-13.1v-57.16l13.1-13.1h38.97l13.1,13.1v24.89l-13.1,13.1h-33.08v14.9h46.18v4.26
			L848.16,617.81z M842.27,552.63h-27.19v15.56h27.19V552.63z"/>
            <path class="st0" d="M923.99,617.81h-34.06l-13.1-13.1v-4.26h41.27v-15.72h-28.17l-13.1-13.1v-24.08l13.1-13.1h34.06l13.1,13.1
			v4.26h-41.27v14.9h28.17l13.1,13.1v24.89L923.99,617.81z"/>
        </g>
        <g>
            <path class="st0" d="M391.43,173.95h43.21c38.9,0,71.09,29.3,75.63,66.97h33.27c-4.64-55.94-51.73-100.1-108.91-100.1H358.3v100.1
			h33.13V173.95z"/>
            <path class="st0" d="M470.9,255.87H358.3v33.18V468.9h33.13V289.05h79.47c22.53,0,40.85,18.32,40.85,40.85
			c0,22.53-18.32,40.85-40.85,40.85h-25.65v-38.76h-33.13v71.89h58.78c40.8,0,73.98-33.18,73.98-73.98S511.69,255.87,470.9,255.87z"
			/>
        </g>
        <g>
            <g>
                <path class="st0" d="M305.72,55.58V468.9h40.23v-28.4h-11.83V83.97h356.53v356.53h-287.1v28.4h315.5V55.58H305.72z"/>
            </g>
        </g>
        <g>
            <g>
                <path d="M87.38,640.97h2.5v22.17h-2.5V640.97z"/>
                <path d="M96.38,640.97h2.34l13.97,17.77v-17.77h2.44v22.17h-1.99l-14.32-18.18v18.18h-2.44V640.97z"/>
                <path d="M119.52,640.97h2.79l7.89,19.1l7.92-19.1h2.69l-9.53,22.33h-2.22L119.52,640.97z"/>
                <path d="M145.18,640.97h16.03v2.28h-13.52v7.57h12.1v2.28h-12.1v7.76h13.68v2.28h-16.19V640.97z"/>
                <path d="M164.96,659.91l1.55-1.84c2.31,2.09,4.53,3.14,7.6,3.14c2.98,0,4.94-1.58,4.94-3.77v-0.06c0-2.06-1.11-3.23-5.76-4.21
				c-5.1-1.11-7.44-2.75-7.44-6.4v-0.06c0-3.48,3.07-6.05,7.28-6.05c3.23,0,5.54,0.92,7.79,2.72l-1.46,1.93
				c-2.06-1.68-4.12-2.41-6.4-2.41c-2.88,0-4.72,1.58-4.72,3.58v0.06c0,2.09,1.14,3.26,6.02,4.31c4.94,1.08,7.22,2.88,7.22,6.27
				v0.06c0,3.8-3.17,6.27-7.57,6.27C170.5,663.46,167.62,662.28,164.96,659.91z"/>
                <path d="M192.08,643.28h-7.44v-2.31h17.42v2.31h-7.44v19.86h-2.53V643.28z"/>
                <path d="M222.12,643.28h-7.44v-2.31h17.42v2.31h-7.44v19.86h-2.53V643.28z"/>
                <path d="M234.29,652.12v-0.06c0-6.11,4.59-11.47,11.34-11.47c6.75,0,11.27,5.29,11.27,11.4v0.06c0,6.11-4.59,11.47-11.34,11.47
				C238.82,663.52,234.29,658.23,234.29,652.12z M254.31,652.12v-0.06c0-5.03-3.68-9.15-8.74-9.15c-5.07,0-8.68,4.05-8.68,9.09v0.06
				c0,5.04,3.67,9.15,8.74,9.15C250.7,661.21,254.31,657.15,254.31,652.12z"/>
                <path d="M261.23,652.12v-0.06c0-6.08,4.47-11.47,11.12-11.47c3.74,0,6.05,1.08,8.27,2.95l-1.61,1.9
				c-1.71-1.49-3.61-2.54-6.75-2.54c-4.91,0-8.43,4.15-8.43,9.09v0.06c0,5.29,3.39,9.22,8.77,9.22c2.53,0,4.88-0.98,6.4-2.22v-5.51
				h-6.75v-2.25h9.15v8.84c-2.06,1.84-5.16,3.39-8.9,3.39C265.54,663.52,261.23,658.45,261.23,652.12z"/>
                <path d="M287.06,640.97h16.03v2.28h-13.52v7.57h12.1v2.28h-12.1v7.76h13.68v2.28h-16.19V640.97z"/>
                <path d="M314.15,643.28h-7.44v-2.31h17.42v2.31h-7.44v19.86h-2.53V643.28z"/>
                <path d="M328.83,640.97h2.5v9.85h12.8v-9.85h2.5v22.17h-2.5v-9.98h-12.8v9.98h-2.5V640.97z"/>
                <path d="M352.91,640.97h16.03v2.28h-13.52v7.57h12.1v2.28h-12.1v7.76h13.68v2.28h-16.19V640.97z"/>
                <path d="M374.14,640.97h9.53c2.72,0,4.91,0.82,6.3,2.22c1.08,1.08,1.71,2.63,1.71,4.37v0.06c0,3.68-2.53,5.83-6.02,6.46
				l6.81,9.06h-3.07l-6.43-8.62h-6.33v8.62h-2.5V640.97z M383.46,652.28c3.32,0,5.7-1.71,5.7-4.56v-0.06c0-2.72-2.09-4.37-5.67-4.37
				h-6.84v9H383.46z"/>
                <path d="M405.1,659.91l1.55-1.84c2.31,2.09,4.53,3.14,7.6,3.14c2.98,0,4.94-1.58,4.94-3.77v-0.06c0-2.06-1.11-3.23-5.76-4.21
				c-5.1-1.11-7.44-2.75-7.44-6.4v-0.06c0-3.48,3.07-6.05,7.28-6.05c3.23,0,5.54,0.92,7.79,2.72l-1.46,1.93
				c-2.06-1.68-4.12-2.41-6.4-2.41c-2.88,0-4.72,1.58-4.72,3.58v0.06c0,2.09,1.14,3.26,6.02,4.31c4.94,1.08,7.22,2.88,7.22,6.27
				v0.06c0,3.8-3.17,6.27-7.57,6.27C410.64,663.46,407.76,662.28,405.1,659.91z"/>
                <path d="M426.84,640.97h16.03v2.28h-13.52v7.57h12.1v2.28h-12.1v7.76h13.68v2.28h-16.19V640.97z"/>
                <path d="M447.09,652.12v-0.06c0-6.27,4.69-11.47,11.21-11.47c4.02,0,6.43,1.43,8.64,3.52l-1.71,1.84
				c-1.87-1.77-3.96-3.04-6.97-3.04c-4.91,0-8.58,3.99-8.58,9.09v0.06c0,5.13,3.71,9.15,8.58,9.15c3.04,0,5.04-1.17,7.16-3.2
				l1.65,1.62c-2.31,2.34-4.85,3.89-8.87,3.89C451.81,663.52,447.09,658.48,447.09,652.12z"/>
                <path d="M471.11,653.86v-12.89h2.5v12.73c0,4.78,2.57,7.47,6.78,7.47c4.08,0,6.68-2.47,6.68-7.32v-12.89h2.5v12.7
				c0,6.46-3.71,9.82-9.25,9.82C474.85,663.49,471.11,660.13,471.11,653.86z"/>
                <path d="M495.51,640.97h9.53c2.72,0,4.91,0.82,6.3,2.22c1.08,1.08,1.71,2.63,1.71,4.37v0.06c0,3.68-2.53,5.83-6.02,6.46
				l6.81,9.06h-3.07l-6.43-8.62h-6.33v8.62h-2.5V640.97z M504.82,652.28c3.32,0,5.7-1.71,5.7-4.56v-0.06c0-2.72-2.09-4.37-5.67-4.37
				h-6.84v9H504.82z"/>
                <path d="M518.43,640.97h16.03v2.28h-13.52v7.57h12.1v2.28h-12.1v7.76h13.68v2.28h-16.19V640.97z"/>
                <path d="M539.66,640.97h2.5v19.86h12.48v2.31h-14.98V640.97z"/>
                <path d="M562.09,654.37l-9.21-13.4h3.04l7.47,11.08l7.54-11.08h2.91l-9.22,13.37v8.8h-2.53V654.37z"/>
                <path d="M586.37,652.12v-0.06c0-6.11,4.59-11.47,11.34-11.47s11.28,5.29,11.28,11.4v0.06c0,6.11-4.59,11.47-11.34,11.47
				C590.9,663.52,586.37,658.23,586.37,652.12z M606.39,652.12v-0.06c0-5.03-3.68-9.15-8.74-9.15c-5.07,0-8.68,4.05-8.68,9.09v0.06
				c0,5.04,3.68,9.15,8.74,9.15S606.39,657.15,606.39,652.12z"/>
                <path d="M614.29,640.97h2.34l13.97,17.77v-17.77h2.44v22.17h-1.99l-14.32-18.18v18.18h-2.44V640.97z"/>
                <path d="M654.69,643.28h-7.44v-2.31h17.42v2.31h-7.44v19.86h-2.53V643.28z"/>
                <path d="M669.36,640.97h2.5v9.85h12.8v-9.85h2.5v22.17h-2.5v-9.98h-12.8v9.98h-2.5V640.97z"/>
                <path d="M693.44,640.97h16.03v2.28h-13.52v7.57h12.1v2.28h-12.1v7.76h13.68v2.28h-16.19V640.97z"/>
                <path d="M724.18,640.97h9.44c2.53,0,4.53,0.73,5.79,1.96c0.92,0.95,1.43,2.12,1.43,3.55v0.06c0,2.88-1.77,4.37-3.52,5.13
				c2.63,0.79,4.75,2.31,4.75,5.35v0.06c0,3.8-3.2,6.05-8.05,6.05h-9.85V640.97z M738.31,646.83c0-2.19-1.74-3.61-4.91-3.61h-6.75
				v7.63h6.56c3.01,0,5.1-1.36,5.1-3.96V646.83z M733.65,653.07h-7v7.82h7.44c3.36,0,5.45-1.49,5.45-3.96v-0.06
				C739.54,654.46,737.52,653.07,733.65,653.07z"/>
                <path d="M747.06,640.97h2.5v19.86h12.48v2.31h-14.98V640.97z"/>
                <path d="M764.43,652.12v-0.06c0-6.11,4.59-11.47,11.34-11.47c6.75,0,11.27,5.29,11.27,11.4v0.06c0,6.11-4.59,11.47-11.34,11.47
				C768.96,663.52,764.43,658.23,764.43,652.12z M784.45,652.12v-0.06c0-5.03-3.67-9.15-8.74-9.15s-8.68,4.05-8.68,9.09v0.06
				c0,5.04,3.68,9.15,8.74,9.15C780.84,661.21,784.45,657.15,784.45,652.12z"/>
                <path d="M791.37,652.12v-0.06c0-6.27,4.69-11.47,11.21-11.47c4.02,0,6.43,1.43,8.64,3.52l-1.71,1.84
				c-1.87-1.77-3.96-3.04-6.97-3.04c-4.91,0-8.58,3.99-8.58,9.09v0.06c0,5.13,3.71,9.15,8.58,9.15c3.04,0,5.04-1.17,7.16-3.2
				l1.65,1.62c-2.31,2.34-4.85,3.89-8.87,3.89C796.09,663.52,791.37,658.48,791.37,652.12z"/>
                <path d="M815.74,640.97h2.5v13.24l12.73-13.24h3.23l-9.5,9.69l9.91,12.48h-3.13l-8.52-10.74l-4.72,4.78v5.95h-2.5V640.97z"/>
                <path d="M835.92,652.12v-0.06c0-6.27,4.69-11.47,11.21-11.47c4.02,0,6.43,1.43,8.64,3.52l-1.71,1.84
				c-1.87-1.77-3.96-3.04-6.97-3.04c-4.91,0-8.58,3.99-8.58,9.09v0.06c0,5.13,3.71,9.15,8.58,9.15c3.04,0,5.04-1.17,7.16-3.2
				l1.65,1.62c-2.31,2.34-4.85,3.89-8.87,3.89C840.64,663.52,835.92,658.48,835.92,652.12z"/>
                <path d="M860.29,640.97h2.5v9.85h12.8v-9.85h2.5v22.17h-2.5v-9.98h-12.8v9.98h-2.5V640.97z"/>
                <path d="M892.58,640.81h2.34l10.1,22.33h-2.69l-2.6-5.86h-12.07l-2.63,5.86h-2.57L892.58,640.81z M898.76,655l-5.04-11.27
				L888.65,655H898.76z"/>
                <path d="M909.63,640.97h2.5v22.17h-2.5V640.97z"/>
                <path d="M918.63,640.97h2.34l13.97,17.77v-17.77h2.44v22.17h-1.99l-14.32-18.18v18.18h-2.44V640.97z"/>
            </g>
        </g>
    </g>
</svg>