<?xml version="1.0" encoding="utf-8"?>
<svg version="1.1" id="Layer_1" x="0px" y="0px" viewBox="0 0 1024 720" style="enable-background:new 0 0 1024 720;" xmlns="http://www.w3.org/2000/svg">
  <style type="text/css">
	.st0{fill:#000F28;}
</style>
  <g>
    <g>
      <path class="st0" d="M391.43,173.95h43.21c38.9,0,71.09,29.3,75.63,66.97h33.27c-4.64-55.94-51.73-100.1-108.91-100.1H358.3v100.1 h33.13V173.95z" style="fill: rgb(0, 0, 0);"/>
      <path class="st0" d="M470.9,255.87H358.3v33.18V468.9h33.13V289.05h79.47c22.53,0,40.85,18.32,40.85,40.85 c0,22.53-18.32,40.85-40.85,40.85h-25.65v-38.76h-33.13v71.89h58.78c40.8,0,73.98-33.18,73.98-73.98S511.69,255.87,470.9,255.87z" style="fill: rgb(0, 0, 0);"/>
    </g>
    <g>
      <g>
        <path class="st0" d="M305.72,55.58V468.9h40.23v-28.4h-11.83V83.97h356.53v356.53h-287.1v28.4h315.5V55.58H305.72z" style="fill: rgb(0, 0, 0);"/>
      </g>
    </g>
    <g/>
  </g>
</svg>